<svg width="24" height="24" viewBox="0 0 24 24" fill="none" xmlns="http://www.w3.org/2000/svg">
<path d="M13.7502 9.99995C14.0154 9.99995 14.2698 9.89459 14.4573 9.70706C14.6448 9.51952 14.7502 9.26517 14.7502 8.99995C14.7502 8.73473 14.6448 8.48038 14.4573 8.29284C14.2698 8.10531 14.0154 7.99995 13.7502 7.99995C13.485 7.99995 13.2306 8.10531 13.0431 8.29284C12.8556 8.48038 12.7502 8.73473 12.7502 8.99995C12.7502 9.26517 12.8556 9.51952 13.0431 9.70706C13.2306 9.89459 13.485 9.99995 13.7502 9.99995ZM10.2502 9.99995C10.5154 9.99995 10.7698 9.89459 10.9573 9.70706C11.1448 9.51952 11.2502 9.26517 11.2502 8.99995C11.2502 8.73473 11.1448 8.48038 10.9573 8.29284C10.7698 8.10531 10.5154 7.99995 10.2502 7.99995C9.98498 7.99995 9.73063 8.10531 9.54309 8.29284C9.35555 8.48038 9.2502 8.73473 9.2502 8.99995C9.2502 9.26517 9.35555 9.51952 9.54309 9.70706C9.73063 9.89459 9.98498 9.99995 10.2502 9.99995ZM15.5002 13C15.7654 13 16.0198 12.8946 16.2073 12.7071C16.3948 12.5195 16.5002 12.2652 16.5002 12C16.5002 11.7347 16.3948 11.4804 16.2073 11.2928C16.0198 11.1053 15.7654 11 15.5002 11C15.235 11 14.9806 11.1053 14.7931 11.2928C14.6056 11.4804 14.5002 11.7347 14.5002 12C14.5002 12.2652 14.6056 12.5195 14.7931 12.7071C14.9806 12.8946 15.235 13 15.5002 13ZM17.1502 9.74995C17.3491 9.74995 17.5399 9.67093 17.6805 9.53028C17.8212 9.38963 17.9002 9.19886 17.9002 8.99995C17.9002 8.80104 17.8212 8.61027 17.6805 8.46962C17.5399 8.32897 17.3491 8.24995 17.1502 8.24995C16.9513 8.24995 16.7605 8.32897 16.6199 8.46962C16.4792 8.61027 16.4002 8.80104 16.4002 8.99995C16.4002 9.19886 16.4792 9.38963 16.6199 9.53028C16.7605 9.67093 16.9513 9.74995 17.1502 9.74995ZM17.1502 15.75C17.3491 15.75 17.5399 15.6709 17.6805 15.5303C17.8212 15.3896 17.9002 15.1989 17.9002 15C17.9002 14.801 17.8212 14.6103 17.6805 14.4696C17.5399 14.329 17.3491 14.25 17.1502 14.25C16.9513 14.25 16.7605 14.329 16.6199 14.4696C16.4792 14.6103 16.4002 14.801 16.4002 15C16.4002 15.1989 16.4792 15.3896 16.6199 15.5303C16.7605 15.6709 16.9513 15.75 17.1502 15.75ZM19.7502 12.75C19.9491 12.75 20.1399 12.6709 20.2805 12.5303C20.4212 12.3896 20.5002 12.1989 20.5002 12C20.5002 11.801 20.4212 11.6103 20.2805 11.4696C20.1399 11.329 19.9491 11.25 19.7502 11.25C19.5513 11.25 19.3605 11.329 19.2199 11.4696C19.0792 11.6103 19.0002 11.801 19.0002 12C19.0002 12.1989 19.0792 12.3896 19.2199 12.5303C19.3605 12.6709 19.5513 12.75 19.7502 12.75ZM6.8002 9.74995C6.99911 9.74995 7.18987 9.67093 7.33053 9.53028C7.47118 9.38963 7.5502 9.19886 7.5502 8.99995C7.5502 8.80104 7.47118 8.61027 7.33053 8.46962C7.18987 8.32897 6.99911 8.24995 6.8002 8.24995C6.60128 8.24995 6.41052 8.32897 6.26987 8.46962C6.12921 8.61027 6.0502 8.80104 6.0502 8.99995C6.0502 9.19886 6.12921 9.38963 6.26987 9.53028C6.41052 9.67093 6.60128 9.74995 6.8002 9.74995ZM6.8002 15.75C6.99911 15.75 7.18987 15.6709 7.33053 15.5303C7.47118 15.3896 7.5502 15.1989 7.5502 15C7.5502 14.801 7.47118 14.6103 7.33053 14.4696C7.18987 14.329 6.99911 14.25 6.8002 14.25C6.60128 14.25 6.41052 14.329 6.26987 14.4696C6.12921 14.6103 6.0502 14.801 6.0502 15C6.0502 15.1989 6.12921 15.3896 6.26987 15.5303C6.41052 15.6709 6.60128 15.75 6.8002 15.75ZM4.2002 12.75C4.39911 12.75 4.58987 12.6709 4.73053 12.5303C4.87118 12.3896 4.9502 12.1989 4.9502 12C4.9502 11.801 4.87118 11.6103 4.73053 11.4696C4.58987 11.329 4.39911 11.25 4.2002 11.25C4.00128 11.25 3.81052 11.329 3.66987 11.4696C3.52921 11.6103 3.4502 11.801 3.4502 12C3.4502 12.1989 3.52921 12.3896 3.66987 12.5303C3.81052 12.6709 4.00128 12.75 4.2002 12.75ZM15.9002 5.94995C16.0991 5.94995 16.2899 5.87093 16.4305 5.73028C16.5712 5.58963 16.6502 5.39886 16.6502 5.19995C16.6502 5.00104 16.5712 4.81027 16.4305 4.66962C16.2899 4.52897 16.0991 4.44995 15.9002 4.44995C15.7013 4.44995 15.5105 4.52897 15.3699 4.66962C15.2292 4.81027 15.1502 5.00104 15.1502 5.19995C15.1502 5.39886 15.2292 5.58963 15.3699 5.73028C15.5105 5.87093 15.7013 5.94995 15.9002 5.94995ZM8.1002 5.94995C8.29911 5.94995 8.48987 5.87093 8.63053 5.73028C8.77118 5.58963 8.8502 5.39886 8.8502 5.19995C8.8502 5.00104 8.77118 4.81027 8.63053 4.66962C8.48987 4.52897 8.29911 4.44995 8.1002 4.44995C7.90128 4.44995 7.71052 4.52897 7.56987 4.66962C7.42921 4.81027 7.3502 5.00104 7.3502 5.19995C7.3502 5.39886 7.42921 5.58963 7.56987 5.73028C7.71052 5.87093 7.90128 5.94995 8.1002 5.94995ZM12.0502 6.74995C12.2491 6.74995 12.4399 6.67093 12.5805 6.53028C12.7212 6.38963 12.8002 6.19886 12.8002 5.99995C12.8002 5.80104 12.7212 5.61027 12.5805 5.46962C12.4399 5.32897 12.2491 5.24995 12.0502 5.24995C11.8513 5.24995 11.6605 5.32897 11.5199 5.46962C11.3792 5.61027 11.3002 5.80104 11.3002 5.99995C11.3002 6.19886 11.3792 6.38963 11.5199 6.53028C11.6605 6.67093 11.8513 6.74995 12.0502 6.74995ZM15.9002 19.75C16.0991 19.75 16.2899 19.6709 16.4305 19.5303C16.5712 19.3896 16.6502 19.1989 16.6502 19C16.6502 18.801 16.5712 18.6103 16.4305 18.4696C16.2899 18.329 16.0991 18.25 15.9002 18.25C15.7013 18.25 15.5105 18.329 15.3699 18.4696C15.2292 18.6103 15.1502 18.801 15.1502 19C15.1502 19.1989 15.2292 19.3896 15.3699 19.5303C15.5105 19.6709 15.7013 19.75 15.9002 19.75ZM8.1002 19.75C8.29911 19.75 8.48987 19.6709 8.63053 19.5303C8.77118 19.3896 8.8502 19.1989 8.8502 19C8.8502 18.801 8.77118 18.6103 8.63053 18.4696C8.48987 18.329 8.29911 18.25 8.1002 18.25C7.90128 18.25 7.71052 18.329 7.56987 18.4696C7.42921 18.6103 7.3502 18.801 7.3502 19C7.3502 19.1989 7.42921 19.3896 7.56987 19.5303C7.71052 19.6709 7.90128 19.75 8.1002 19.75ZM12.0502 18.95C12.2491 18.95 12.4399 18.8709 12.5805 18.7303C12.7212 18.5896 12.8002 18.3989 12.8002 18.2C12.8002 18.001 12.7212 17.8103 12.5805 17.6696C12.4399 17.529 12.2491 17.45 12.0502 17.45C11.8513 17.45 11.6605 17.529 11.5199 17.6696C11.3792 17.8103 11.3002 18.001 11.3002 18.2C11.3002 18.3989 11.3792 18.5896 11.5199 18.7303C11.6605 18.8709 11.8513 18.95 12.0502 18.95ZM8.5002 13C8.76541 13 9.01977 12.8946 9.2073 12.7071C9.39484 12.5195 9.5002 12.2652 9.5002 12C9.5002 11.7347 9.39484 11.4804 9.2073 11.2928C9.01977 11.1053 8.76541 11 8.5002 11C8.23498 11 7.98063 11.1053 7.79309 11.2928C7.60555 11.4804 7.5002 11.7347 7.5002 12C7.5002 12.2652 7.60555 12.5195 7.79309 12.7071C7.98063 12.8946 8.23498 13 8.5002 13ZM10.2502 16C10.5154 16 10.7698 15.8946 10.9573 15.7071C11.1448 15.5195 11.2502 15.2652 11.2502 15C11.2502 14.7347 11.1448 14.4804 10.9573 14.2928C10.7698 14.1053 10.5154 14 10.2502 14C9.98498 14 9.73063 14.1053 9.54309 14.2928C9.35555 14.4804 9.2502 14.7347 9.2502 15C9.2502 15.2652 9.35555 15.5195 9.54309 15.7071C9.73063 15.8946 9.98498 16 10.2502 16ZM13.7502 16C14.0154 16 14.2698 15.8946 14.4573 15.7071C14.6448 15.5195 14.7502 15.2652 14.7502 15C14.7502 14.7347 14.6448 14.4804 14.4573 14.2928C14.2698 14.1053 14.0154 14 13.7502 14C13.485 14 13.2306 14.1053 13.0431 14.2928C12.8556 14.4804 12.7502 14.7347 12.7502 15C12.7502 15.2652 12.8556 15.5195 13.0431 15.7071C13.2306 15.8946 13.485 16 13.7502 16Z" stroke="#CB68FA" stroke-miterlimit="10"/>
</svg>
