<svg width="24" height="24" viewBox="0 0 24 24" fill="none" xmlns="http://www.w3.org/2000/svg">
<path d="M7.625 7.625V3.925C7.625 3.125 8.225 2.425 9.025 2.225C11.025 1.925 13.025 1.925 15.025 2.225C15.825 2.325 16.425 3.025 16.425 3.925V9.825C16.425 11.025 15.425 12.025 14.225 12.025H9.825C8.625 12.025 7.625 13.025 7.625 14.225V20.125C7.625 20.925 8.225 21.625 9.025 21.825C11.025 22.125 13.025 22.125 15.025 21.825C15.825 21.725 16.425 21.025 16.425 20.125V16.425" stroke="#CB68FA" stroke-width="1.5" stroke-linecap="round" stroke-linejoin="round"/>
<path d="M16.425 7.625H20.125C20.925 7.625 21.625 8.225 21.825 9.025C22.125 11.025 22.125 13.025 21.825 15.025C21.725 15.825 21.025 16.425 20.125 16.425H12.025M12.025 7.625H3.925C3.125 7.625 2.425 8.225 2.225 9.025C1.925 11.025 1.925 13.025 2.225 15.025C2.325 15.825 3.025 16.425 3.925 16.425H7.625" stroke="#CB68FA" stroke-width="1.5" stroke-linecap="round" stroke-linejoin="round"/>
</svg>
